<svg width="34" height="63" viewBox="0 0 34 63" fill="none" xmlns="http://www.w3.org/2000/svg">
<path d="M6.91208 43.2958L6.52808 35.9998C6.46408 33.1838 7.23208 30.8478 8.83208 28.9918C10.4321 27.0718 12.2241 25.2478 14.2081 23.5198C16.1281 21.7918 17.6321 20.2878 18.7201 19.0078C19.8081 17.6638 20.5761 16.4478 21.0241 15.3598C21.5361 14.2078 21.7921 13.0558 21.7921 11.9038C21.7921 10.8798 21.6001 9.82377 21.2161 8.73577C20.8961 7.58377 20.1921 7.00776 19.1041 7.00776C18.5281 7.00776 17.5361 7.13577 16.1281 7.39177C14.7201 7.64777 13.1201 7.96777 11.3281 8.35176C9.60008 8.67176 7.90408 9.02377 6.24008 9.40777L8.22544e-05 2.11176C3.32808 1.47177 6.62408 0.959766 9.88808 0.575768C13.1521 0.191769 15.9681 -0.000230789 18.3361 -0.000230789C23.2001 -0.000230789 26.9121 0.959768 29.4721 2.87977C32.0961 4.73577 33.4081 8.03176 33.4081 12.7678C33.4081 15.6478 32.7681 18.1758 31.4881 20.3518C30.2081 22.5278 28.5761 24.5118 26.5921 26.3038C24.6721 28.0318 22.6561 29.8238 20.5441 31.6798C19.7121 32.5118 18.9761 33.3118 18.3361 34.0798C17.7601 34.7838 17.2481 35.5838 16.8001 36.4798C16.4161 37.3758 16.0961 38.4318 15.8401 39.6478C15.6481 40.7998 15.5201 42.2398 15.4561 43.9678C14.4321 44.1598 13.2161 44.3518 11.8081 44.5438C10.4641 44.7358 9.47208 44.8318 8.83208 44.8318C8.57608 44.8318 8.19208 44.6398 7.68008 44.2558C7.16808 43.8078 6.91208 43.4878 6.91208 43.2958ZM0.768082 18.3358L8.22544e-05 2.11176H9.98408L7.48808 18.3358H0.768082ZM4.41608 53.8558C4.41608 53.7278 4.73608 53.3758 5.37608 52.7998C6.08008 52.1598 6.88008 51.4878 7.77608 50.7838C8.67208 50.0798 9.47208 49.4718 10.1761 48.9598C10.8801 48.4478 11.3281 48.1918 11.5201 48.1918C11.8401 48.1918 12.3521 48.5118 13.0561 49.1518C13.8241 49.7278 14.5921 50.4638 15.3601 51.3598C16.1281 52.1918 16.7681 52.9918 17.2801 53.7598C17.8561 54.4638 18.1121 54.9438 18.0481 55.1998L17.5681 57.5038C17.5681 57.6958 17.2161 58.1118 16.5121 58.7518C15.8721 59.3278 15.1041 59.9358 14.2081 60.5758C13.3761 61.2158 12.5761 61.7598 11.8081 62.2078C11.1041 62.6558 10.6561 62.8798 10.4641 62.8798C10.0801 62.8798 9.53608 62.5598 8.83208 61.9198C8.12808 61.3438 7.39208 60.6398 6.62408 59.8078C5.92008 58.9758 5.31208 58.2078 4.80008 57.5038C4.28808 56.7358 4.03208 56.2238 4.03208 55.9678L4.41608 53.8558Z" fill="white"/>
</svg>
